<svg width="28" height="28" viewBox="0 0 28 28" fill="none" xmlns="http://www.w3.org/2000/svg">
<path fill-rule="evenodd" clip-rule="evenodd" d="M15.7195 26.4702C18.8591 23.5374 25.2 16.9076 25.2 11.2C25.2 5.01441 20.1856 0 14 0C7.8144 0 2.79999 5.01441 2.79999 11.2C2.79999 16.9076 9.14086 23.5374 12.2805 26.4702C13.2585 27.3839 14.7415 27.3839 15.7195 26.4702ZM14 14C15.5464 14 16.8 12.7464 16.8 11.2C16.8 9.6536 15.5464 8.4 14 8.4C12.4536 8.4 11.2 9.6536 11.2 11.2C11.2 12.7464 12.4536 14 14 14Z" fill="#64D98C"/>
</svg>
